<svg width="16" height="16" viewBox="0 0 16 16" fill="none" xmlns="http://www.w3.org/2000/svg">
<path d="M11.4607 4.48937C11.6251 4.34495 11.8438 4.2651 12.0707 4.26669C12.2976 4.26827 12.515 4.35116 12.6769 4.49787C12.8389 4.64457 12.9328 4.84362 12.9388 5.05301C12.9448 5.26239 12.8624 5.46574 12.7091 5.62014L8.05408 10.994C7.97404 11.0736 7.87743 11.1374 7.77004 11.1818C7.66264 11.2261 7.54667 11.25 7.42904 11.252C7.31142 11.254 7.19456 11.2341 7.08546 11.1935C6.97637 11.1528 6.87726 11.0923 6.79408 11.0155L3.70708 8.16599C3.62111 8.09205 3.55216 8.00288 3.50434 7.9038C3.45651 7.80472 3.4308 7.69777 3.42873 7.58932C3.42665 7.48087 3.44826 7.37315 3.49227 7.27258C3.53628 7.172 3.60178 7.08065 3.68487 7.00395C3.76796 6.92725 3.86693 6.86679 3.97588 6.82616C4.08484 6.78554 4.20154 6.76559 4.31903 6.76751C4.43651 6.76942 4.55238 6.79316 4.65971 6.8373C4.76704 6.88145 4.86364 6.9451 4.94375 7.02445L7.38675 9.27845L11.4386 4.51307C11.4459 4.50477 11.4537 4.49686 11.4619 4.48937H11.4607Z" fill="#F4F4FD"/>
<rect x="0.625" y="0.625" width="14.75" height="14.75" rx="1.375" stroke="#2E2F42" stroke-width="1.25"/>
</svg>
