<svg xmlns="http://www.w3.org/2000/svg" width="63" height="46" fill="none"><path fill="#8E8F99" d="M4.792 38.373c.245.274.376.616.37.968.012.229-.033.458-.132.67-.1.211-.25.4-.441.552a2.68 2.68 0 0 1-1.664.446H0v-6.132h2.865a2.646 2.646 0 0 1 1.587.407c.185.14.332.316.428.515.097.2.14.416.128.633.017.338-.101.67-.333.937a1.59 1.59 0 0 1-.871.48c.388.064.738.25.988.524Zm-3.431-.926h1.225c.278.019.554-.053.778-.203a.732.732 0 0 0 .21-.272.662.662 0 0 0 .053-.328.684.684 0 0 0-.055-.325.753.753 0 0 0-.204-.274 1.28 1.28 0 0 0-.802-.206H1.36v1.608ZM3.484 39.8a.77.77 0 0 0 .226-.281.694.694 0 0 0 .064-.342.705.705 0 0 0-.067-.346.782.782 0 0 0-.23-.283 1.366 1.366 0 0 0-.831-.222H1.36v1.687h1.301c.293.015.583-.06.822-.213ZM10.649 41.01l-1.594-2.397h-.6v2.396h-1.37v-6.132H9.68a2.752 2.752 0 0 1 1.807.521c.363.333.582.772.617 1.237.036.465-.115.926-.424 1.3-.32.33-.757.551-1.238.624l1.697 2.45h-1.49Zm-2.193-3.233h1.121c.779 0 1.168-.31 1.168-.929a.831.831 0 0 0-.063-.371.908.908 0 0 0-.223-.318 1.307 1.307 0 0 0-.882-.248H8.442l.014 1.866ZM18.143 39.775H15.41l-.483 1.234H13.49L16 34.946h1.554l2.499 6.063h-1.438l-.472-1.234Zm-.366-.928-.999-2.589-.998 2.588h1.997ZM27.523 41.01h-1.36l-3.052-4.17v4.17h-1.358v-6.133h1.358l3.051 4.194v-4.194h1.361v6.132ZM35.29 39.541a2.82 2.82 0 0 1-1.231 1.082c-.592.27-1.25.402-1.913.386h-2.423v-6.132h2.423a4.472 4.472 0 0 1 1.913.377c.521.237.95.61 1.231 1.07.28.499.426 1.05.426 1.609a3.28 3.28 0 0 1-.426 1.608Zm-1.557-.146a2.12 2.12 0 0 0 .602-1.464 2.12 2.12 0 0 0-.602-1.463 2.536 2.536 0 0 0-1.704-.522h-.945v3.97h.945a2.536 2.536 0 0 0 1.704-.521ZM18.994.767s17.567 5.97 17.195 14.61v14.614S18.635 24.017 19 15.377L18.994.767ZM51.839 26.57c3.318-2.056 7.155-3.33 11.161-3.703v-4.575c-4.616 1.601-8.531 4.505-11.161 8.277Z"/><path fill="#8E8F99" d="M49.846 27.948C52.56 23.025 57.269 19.227 63 17.334V4.152s-25.018 8.505-24.489 20.809v20.806s1.115-.38 2.869-1.094c0-.665 0-1.336.08-2.01.518-5.712 3.534-11.005 8.386-14.715Z"/><path fill="#8E8F99" d="M47.466 35.677a19.57 19.57 0 0 1 .876-4.26c-3.021 3.204-4.851 7.18-5.232 11.369-.036.395-.056.79-.066 1.198a75.86 75.86 0 0 0 4.812-2.282 19.43 19.43 0 0 1-.39-6.025ZM48.461 35.752a18.567 18.567 0 0 0 .31 5.455c6.835-3.682 14.515-9.37 14.219-16.246v-.6c-4.883.493-9.452 2.415-13.005 5.471a18.817 18.817 0 0 0-1.524 5.92Z"/></svg>